{"title":"The.Prince.2014.AVI.BRRip.720p.DivX.NLaudio.{Th3Sp3cialist}","uid":10941983,"size":2134120384,"categoryP":"video","categoryS":"hd___movies","magnet":"?xt=urn:btih:b4efc3ae4d91ce17d798d0338275e86d27e2ba30&amp;dn=The.Prince.2014.AVI.BRRip.720p.DivX.NLaudio.%7BTh3Sp3cialist%7D&amp;tr=udp%3A%2F%2Ftracker.openbittorrent.com%3A80&amp;tr=udp%3A%2F%2Fopen.demonii.com%3A1337&amp;tr=udp%3A%2F%2Ftracker.coppersurfer.tk%3A6969&amp;tr=udp%3A%2F%2Fexodus.desync.com%3A6969","seeders":1,"leechers":0,"uploader":"HOLLANDmovies","files":-1,"time":1409549855,"description":"THE PRINCE 2014 (DivX 720p) \n\nINFO\n\nThe Prince (2014)\n93 min - Action | Thriller\n\nA retired assassin is drawn back into the life he gave up when his daughter is kidnapped. To rescue her, he must confront his former rival.\n\nDirector: Brian A Miller\nWriters: Andre Fabrizio, Jeremy Passmore\nStars: Jason Patric, Jessica Lowndes, Gia Mantegna \n\nGENERAL:\n\nComplete name : The.Prince.2014.AVI.BRRip.720p.DivX.NLaudio.{Th3Sp3cialist}.avi\nFormat : AVI\nFormat/Info : Audio Video Interleave\nFormat profile : OpenDML\nFile size : 1.99 GiB\nDuration : 1h 30mn\nOverall bit rate : 3 139 Kbps\n\nVideo\nID : 0\nOriginal Source :\nFormat : xvid\nCodec ID : xvid\nDuration : 1h 30mn\nBit rate : 2 806 Kbps\nWidth : 1 280 pixels\nHeight : 720 pixels\nDisplay aspect ratio : 16:9\nFrame rate : 24.000 fps\nBits/(Pixel*Frame) : 0.127\nStream size : 1.78 GiB (89%)\n\nAudio\nID : 1\nFormat : MPEG Audio\nFormat version : Version 1\nFormat profile : Layer 3\nMode : Joint stereo\nMode extension : MS Stereo\nCodec ID : 55\nCodec ID/Hint : MP3\nDuration : 1h 30mn\nBit rate mode : Constant\nBit rate : 320 Kbps\nChannel(s) : 2 channels\nSampling rate : 48.0 KHz\nCompression mode : Lossy\nStream size : 207 MiB (10%)\nAlignment : Aligned on interleaves\nInterleave, duration : 24 ms (0.58 video frame)\n &lt;a href=&quot;\nhttp://bayimg.com/NAacIAAgc&quot; rel=&quot;nofollow&quot; target=&quot;_NEW&quot;&gt;\nhttp://bayimg.com/NAacIAAgc&lt;/a&gt; &lt;a href=&quot;\nhttp://bayimg.com/naACJaaGc&quot; rel=&quot;nofollow&quot; target=&quot;_NEW&quot;&gt;\nhttp://bayimg.com/naACJaaGc&lt;/a&gt; &lt;a href=&quot;\nhttp://bayimg.com/naaCkAAgc&quot; rel=&quot;nofollow&quot; target=&quot;_NEW&quot;&gt;\nhttp://bayimg.com/naaCkAAgc&lt;/a&gt;","torrent":{"xt":"urn:btih:b4efc3ae4d91ce17d798d0338275e86d27e2ba30","amp;dn":"The.Prince.2014.AVI.BRRip.720p.DivX.NLaudio.%7BTh3Sp3cialist%7D","amp;tr":["udp%3A%2F%2Ftracker.openbittorrent.com%3A80","udp%3A%2F%2Fopen.demonii.com%3A1337","udp%3A%2F%2Ftracker.coppersurfer.tk%3A6969","udp%3A%2F%2Fexodus.desync.com%3A6969"],"infoHash":"b4efc3ae4d91ce17d798d0338275e86d27e2ba30","infoHashBuffer":{"type":"Buffer","data":[180,239,195,174,77,145,206,23,215,152,208,51,130,117,232,109,39,226,186,48]},"announce":[],"urlList":[]}}